/* XPM */
static char *_2660a019c2f4698f9b7fbc390e08a65o1hQHoMhreoWaX5d[] = {
/* columns rows colors chars-per-pixel */
"50 50 166 2 ",
"   c None",
".  c black",
"X  c #000002",
"o  c #00000A",
"O  c #000015",
"+  c #000016",
"@  c #000017",
"#  c #00001B",
"$  c #00001D",
"%  c #561800",
"&  c #6D0100",
"*  c #7D0900",
"=  c #522C00",
"-  c #752900",
";  c #743400",
":  c #5D5B1E",
">  c #7B7700",
",  c #840100",
"<  c #8A0501",
"1  c #890701",
"2  c #8B0601",
"3  c #8B0701",
"4  c #900001",
"5  c #940201",
"6  c #940701",
"7  c #A30001",
"8  c #A10201",
"9  c #A30201",
"0  c #A40101",
"q  c #AC0201",
"w  c #C20001",
"e  c #C20101",
"r  c #D80001",
"t  c #E20102",
"y  c #EC0502",
"u  c #F60002",
"i  c #F90002",
"p  c #FC0002",
"a  c #FE0002",
"s  c #FF0002",
"d  c #F90006",
"f  c #FF0802",
"g  c #FF0902",
"h  c #F91202",
"j  c #FF1802",
"k  c #D53C01",
"l  c #F72002",
"z  c #F72D02",
"x  c #FA2800",
"c  c #F92F02",
"v  c #F93302",
"b  c #F93D00",
"n  c #F90D24",
"m  c #9A4401",
"M  c #B94D01",
"N  c #D15401",
"B  c #E84A02",
"V  c #F74202",
"C  c #F94101",
"Z  c #F94002",
"A  c #F84402",
"S  c #F94502",
"D  c #F74F01",
"F  c #F84900",
"G  c #FA4900",
"H  c #F94D00",
"J  c #F94F00",
"K  c #F94D02",
"L  c #F94E02",
"P  c #E95302",
"I  c #E75D02",
"U  c #F75302",
"Y  c #F75702",
"T  c #F95202",
"R  c #F85302",
"E  c #FA5302",
"W  c #F95700",
"Q  c #F95402",
"!  c #F85602",
"~  c #FF5304",
"^  c #F15A02",
"/  c #F75A00",
"(  c #F75902",
")  c #F75A02",
"_  c #F75D02",
"`  c #F95802",
"'  c #F85A02",
"]  c #FF5A02",
"[  c #F95E02",
"{  c #F95F02",
"}  c #F75310",
"|  c #F66302",
" . c #F96000",
".. c #F96100",
"X. c #F96200",
"o. c #F96301",
"O. c #F86302",
"+. c #F96302",
"@. c #F96400",
"#. c #F96501",
"$. c #F96600",
"%. c #F96402",
"&. c #F96502",
"*. c #F86602",
"=. c #F96602",
"-. c #F86702",
";. c #F96702",
":. c #FA6602",
">. c #FC6702",
",. c #F96306",
"<. c #F96706",
"1. c #F96802",
"2. c #F96902",
"3. c #FF6801",
"4. c #FF6902",
"5. c #F86408",
"6. c #F56410",
"7. c #F95424",
"8. c #F96322",
"9. c #F96A23",
"0. c #F96C2C",
"q. c #F9712B",
"w. c #F7673B",
"e. c #F67046",
"r. c #B3AD00",
"t. c #B9B500",
"y. c #D4A903",
"u. c #FFBF00",
"i. c #D2CC00",
"p. c #D4CC00",
"a. c #D4CE00",
"s. c #DAD400",
"d. c #D3D800",
"f. c #E2C402",
"g. c #FDC202",
"h. c #FEDE00",
"j. c #FEDD06",
"k. c #FCDE1A",
"l. c #E0E000",
"z. c #E3E101",
"x. c #E3E304",
"c. c #EAE300",
"v. c #E3E802",
"b. c #FEE302",
"n. c #FFFB00",
"m. c #FFF216",
"M. c #DFD852",
"N. c #FFF55C",
"B. c #FDF55E",
"V. c #D6D065",
"C. c #FFF860",
"Z. c #FFFD62",
"A. c #FFFB7F",
"S. c #F79781",
"D. c #F5AFA0",
"F. c #F5AEA3",
"G. c #F5B5A5",
"H. c #F5B5A6",
"J. c #F4CAAB",
"K. c #F6F8C1",
"L. c #F1F4CE",
"P. c #EEEEEE",
"I. c #ECECFA",
"U. c #EDF4F3",
"Y. c #EDF6F8",
"T. c #ECF5FD",
/* pixels */
"                                                                                                    ",
"                                                                                                    ",
"                                                                                                    ",
"                                                                                                    ",
"                                                                                                    ",
"                                                                                                    ",
"                                                                                                    ",
"                                                                                                    ",
"                                                                                                    ",
"                                                                                                    ",
"                                                                                                    ",
"                                                                                                    ",
"                                                                                                    ",
"                                                                                                    ",
"                                                                                                    ",
"                                                                                                    ",
"                                      . . . . . . $ #                                               ",
"                                  . ; B f.v.z.x.z.c.r.o                                             ",
"                                  - M ] g.b.j.h.k.A.V.>                                             ",
"                                . I 4.| Y U } F w.I.K.n.: .                                         ",
"                            . 6 r ^ &.&.&.1.<.&.q.S.J.L.M.t.+                                       ",
"                            . q s ' &.&.{ { &.{ 8.x F.T.Z.s.+                                       ",
"                            . 9 s ) &.1.c i 1.b n L H.U.B.i.+                                       ",
"                            . 9 s ) &.&.Q L &.' 7.F H.Y.C.a.+                                       ",
"                            . 7 s ) &.&.&.&.&...9.L D.P.N.p.+                                       ",
"                            . 7 s _ 1.&.v h 1.V d ..0.e.m.d..                                       ",
"                            . 0 s V Q 1.L A &.E C ,...' u.y..                                       ",
"                            . 7 g u z &.&.&.&.&.&.&.<.6.~ k .                                       ",
"                                & y j l ' 1.&.&.&.&.>.4.m =                                         ",
"                                . w t i A Q Q E Y E P N %                                           ",
"                                  . , g s s s s i s w .                                             ",
"                                      4 1 2 1 1 1 6 *                                               ",
"                                      . . . . . . .                                                 ",
"                                                                                                    ",
"                                                                                                    ",
"                                                                                                    ",
"                                                                                                    ",
"                                                                                                    ",
"                                                                                                    ",
"                                                                                                    ",
"                                                                                                    ",
"                                                                                                    ",
"                                                                                                    ",
"                                                                                                    ",
"                                                                                                    ",
"                                                                                                    ",
"                                                                                                    ",
"                                                                                                    ",
"                                                                                                    ",
"                                                                                                    "
};
