/* XPM */
static char *b236a06309af4c8ca5d5c101e76844e3kBstYuZiNdd27bYD[] = {
/* columns rows colors chars-per-pixel */
"40 50 234 2 ",
"   c None",
".  c #001303",
"X  c black",
"o  c #300F00",
"O  c #012A01",
"+  c #023700",
"@  c #1E3904",
"#  c #082E13",
"$  c #2B2B00",
"%  c #253909",
"&  c #243C19",
"*  c #003E27",
"=  c #1D3D37",
"-  c #510000",
";  c #573506",
":  c #573214",
">  c #4E300A",
",  c #643517",
"<  c #703908",
"1  c #543B25",
"2  c #6F332E",
"3  c #004302",
"4  c #084000",
"5  c #194902",
"6  c #124A14",
"7  c #06490C",
"8  c #244402",
"9  c #2C490F",
"0  c #27430F",
"q  c #364603",
"w  c #355202",
"e  c #3B5B0F",
"r  c #365606",
"t  c #274815",
"y  c #344C13",
"u  c #384413",
"i  c #2D5414",
"p  c #3D5D14",
"a  c #375618",
"s  c #2A5008",
"d  c #006205",
"f  c #236600",
"g  c #3A6602",
"h  c #366710",
"j  c #2C7700",
"k  c #1A472A",
"l  c #03493B",
"z  c #0C4424",
"x  c #284825",
"c  c #3B5527",
"v  c #244838",
"b  c #385736",
"n  c #374B3A",
"m  c #34633E",
"M  c #574A04",
"N  c #535A0D",
"B  c #574618",
"V  c #475B19",
"C  c #544B0D",
"Z  c #755303",
"A  c #644714",
"S  c #74441C",
"D  c #675D1B",
"F  c #7A5418",
"G  c #674500",
"H  c #496709",
"J  c #5A6C06",
"K  c #4C7E00",
"L  c #567707",
"P  c #466314",
"I  c #4B6612",
"U  c #486815",
"Y  c #586D14",
"T  c #4B761A",
"R  c #557B15",
"E  c #676C03",
"W  c #647817",
"Q  c #6E6E15",
"!  c #5D572C",
"~  c #50542D",
"^  c #784825",
"/  c #7B5427",
"(  c #665D35",
")  c #744929",
"_  c #4A6F2A",
"`  c #497833",
"'  c #5A7A38",
"]  c #4F7820",
"[  c #7D752C",
"{  c #706D2F",
"}  c #340057",
"|  c #5C0968",
" . c #641F70",
".. c #672A6F",
"X. c #004747",
"o. c #195759",
"O. c #045052",
"+. c #254A40",
"@. c #27584D",
"#. c #255B54",
"$. c #374341",
"%. c #3B6847",
"&. c #356556",
"*. c #316C4E",
"=. c #055361",
"-. c #0A6069",
";. c #2E6361",
":. c #474F43",
">. c #535651",
",. c #685A4B",
"<. c #497B45",
"1. c #5A7448",
"2. c #526D50",
"3. c #6F7351",
"4. c #787960",
"5. c #913F28",
"6. c #8D4A1C",
"7. c #884A29",
"8. c #86532B",
"9. c #875A29",
"0. c #935A2C",
"q. c #8A5836",
"w. c #975B38",
"e. c #92462F",
"r. c #86652D",
"t. c #8D6332",
"y. c #8F6C3D",
"u. c #9D6B3A",
"i. c #976636",
"p. c #8A7339",
"a. c #9D733E",
"s. c #9E7C39",
"d. c #957537",
"f. c #966D2C",
"g. c #A7683B",
"h. c #A6793D",
"j. c #AB7C2F",
"k. c #8E5F4D",
"l. c #997847",
"z. c #886F4F",
"x. c #AC7643",
"c. c #AA7746",
"v. c #AB774D",
"b. c #977163",
"n. c #098400",
"m. c #4A8505",
"M. c #578200",
"N. c #5B9103",
"B. c #5C8B13",
"V. c #588717",
"C. c #678F0B",
"Z. c #619600",
"A. c #67970A",
"S. c #6C9D15",
"D. c #659816",
"F. c #779F1E",
"G. c #6DA90A",
"H. c #74AA00",
"J. c #73AB0D",
"K. c #72A606",
"L. c #75B30D",
"P. c #6CA214",
"I. c #6AA319",
"U. c #598E2B",
"Y. c #578739",
"T. c #478833",
"R. c #638F2F",
"E. c #679924",
"W. c #689933",
"Q. c #7C8928",
"!. c #6FA326",
"~. c #578446",
"^. c #4F8049",
"/. c #678342",
"(. c #759656",
"). c #728642",
"_. c #7D9266",
"`. c #84900F",
"'. c #928C35",
"]. c #AC843D",
"[. c #A98C3E",
"{. c #B1863E",
"}. c #B3873C",
"|. c #AC8443",
" X c #A78445",
".X c #B68B45",
"XX c #BB8E45",
"oX c #B48C4A",
"OX c #BA8C48",
"+X c #B28445",
"@X c #BC9145",
"#X c #BB924C",
"$X c #B7904A",
"%X c #A98557",
"&X c #B68856",
"*X c #B99559",
"=X c #84906B",
"-X c #AD8A66",
";X c #B69969",
":X c #BCA271",
">X c #C2894C",
",X c #C1954C",
"<X c #C5984E",
"1X c #C59D56",
"2X c #C4965D",
"3X c #C79B57",
"4X c #CBA25C",
"5X c #C6A25E",
"6X c #D3A65B",
"7X c #CA9763",
"8X c #C2966E",
"9X c #CAA162",
"0X c #C6A46C",
"qX c #CBA569",
"wX c #D3AC6D",
"eX c #D5AA65",
"rX c #C8A774",
"tX c #D4AE75",
"yX c #D6B27A",
"uX c #DBB57C",
"iX c #DAB77C",
"pX c #7F1D8C",
"aX c #863290",
"sX c #DEBB83",
"dX c #DBBA85",
"fX c #E0BE87",
"gX c #D59191",
"hX c #E4C48D",
"jX c #E8C487",
"kX c #E5C591",
"lX c #EACA94",
"zX c #E8C894",
"xX c #F2D29C",
"cX c #EFCD95",
/* pixels */
"                                                                                ",
"                                                                                ",
"                                                                                ",
"                                                                                ",
"                                                                                ",
"                        &.<.Y.~.<.o.=.                                          ",
"                      <.E.N.N.H.J.!.Y.#.    3X                                  ",
"                      L Z 9.7.F J G.K.W.&.O.>Xx.    g.                          ",
"                    E v.1X3X,X>Xx.< B.L.[ >.#X    x.x.                          ",
"                  o >XjX4X|.    3X,X0.M.Q.k.+Xc.c.c.x.                          ",
"                  S *X&X#X$X        #Xe.W [ x.x.9.u.k.>.=.=.                    ",
"                  { 0XdX[.            #XF n.s.&X  7.~ T.W.Y.&.o.                ",
"                  d.1XuX0XD       =Xh p.k.h A.).  D S.K.J.L.P.<.                ",
"                  p.1XsXzX{ d     _ b ..aX| g D.r B.R.F.B.J J M.m               ",
"                    {.wXkX-X+   ' 3.+  .pX3.L E.Z.' ,._ 6.g.g.0.V               ",
"                    |.4XlXrX; T   :.5 | ..N.B.D.J.E.:.6.>X*XOX.Xi.              ",
"                    { @X7XzXl.5 ] q i   } '.C.C Q K M x.d.oX$Xp.d.,             ",
"            (.      7  X1XdXyX6.O a &     '.[.R.R g a.    r.-X*X@Xy.            ",
"          3.1.K =X  H y .X@XiXtXe.q %.&.#.O.[ z.j F.p.    Z yXsX@X X            ",
"          1.* 6 2.R.m.!   ].}.fXuXZ i ` T U.f b.b.m.V   s 6.iXsX<Xc.            ",
"            z.rX%X' f :XxX0X.X|.wXtXl.D N B M -XgXb     + F uXsX3X              ",
"          0.q.7.w.q.i.dXlXxXrX}.|.#XqX7X*X7X4X}.W     !.g i.hXdX#X              ",
"        , : + 3 + @ > ; %XdXxX0X].|.]..X#X.X'.z.h V.D.V.G 7XzXwX@X              ",
"        % 6 i 9 y t z z . B -XzXiX}.|.|. X9.o + q w O - *XzXfX6Xc.              ",
"        & t 8 & = = v   n # X z.rXjX4X}.+Xl.,.w.2 ) v.tXhXfXwXh.P               ",
"        0 % & v                   6X:X4.3.&.1.R.1.<.=X0XiXeX].9 p               ",
"        i @ & v %                   O.%.U.S.Z.H E Z ; ; f.d.  y M.    V./.      ",
"        a s k v 8               #.^.E.H.A.E q.v.*X7X7XrXv.q.  8 1.(.C.g 2.      ",
"        e R P +._ w         -.&.R.H.I.Y ^ v.eX5X4X4X4XkXcXlX;X      4 t _       ",
"          V.D.] b %.@.  o.#.` S.J.B.A 0.oX#X,X.X@X@X].XXiXxXxX8X      >.        ",
"          U S.S.D.` <.<.Y.I.J.P.L S a.#X1X.XoXoX#X Xl.|.,XdXkXlX                ",
"            R D.I.K.H.H.L.D.U C 8..X<X@X              B h.4XlXxX0X              ",
"            : D W R B.V.N , 9.|.<X,X|.$.              . > *XfXxXyX              ",
"                0.0.8.t.h.{.XXoX    X.v b c           t $ x.fXxX7X              ",
"                    |..X].        l b 5 O 5 i         a $ x.hXjX4X              ",
"                                y v 6 B h.8.q w     x a @ c.lXlX#X              ",
"                              % w x l ! #X#X) # +.x e a O %XkX4X                ",
"                                0 a a k * ( ( z c I V 3 1 wX6Xj.                ",
"                                @ p U P U p e P I p 3 : 2X9X                    ",
"                                  0 P P P U P p i q ^ .X3X                      ",
"                                      9 y 9 6 u B / c.                          ",
"                                            t.:                                 ",
"                                            i.                                  ",
"                                          ].,                                   ",
"                                          u.                                    ",
"                                          9.                                    ",
"                                          /                                     ",
"                                          t./                                   ",
"                                                                                ",
"                                                                                "
};
