/* XPM */
static char *_5371949bf0948b6cadfb02adc47967fCBFdYS8MdZyJU5bw[] = {
/* columns rows colors chars-per-pixel */
"26 50 183 2 ",
"   c None",
".  c #010101",
"X  c #0C0201",
"o  c #00030B",
"O  c #0C0C0C",
"+  c #05090A",
"@  c #140100",
"#  c #1A0101",
"$  c #110C0B",
"%  c #180C07",
"&  c #1B120C",
"*  c #00001D",
"=  c #031315",
"-  c #141414",
";  c #1B1614",
":  c #1B1B1B",
">  c #171A18",
",  c #240402",
"<  c #2C0200",
"1  c #240905",
"2  c #2D0B07",
"3  c #330200",
"4  c #3C0200",
"5  c #320903",
"6  c #3A0B03",
"7  c #390E09",
"8  c #251108",
"9  c #2F130D",
"0  c #3C150F",
"q  c #36110C",
"w  c #231A17",
"e  c #231E1C",
"r  c #2B1A10",
"t  c #351C14",
"y  c #2A201A",
"u  c #31261E",
"i  c #000038",
"p  c #292827",
"a  c #3D2E23",
"s  c #352C28",
"d  c #333333",
"f  c #3C3B3B",
"g  c #480000",
"h  c #440D08",
"j  c #43140D",
"k  c #461305",
"l  c #441A13",
"z  c #4E1B13",
"x  c #461B16",
"c  c #511D14",
"v  c #4C2115",
"b  c #4B2919",
"n  c #512517",
"m  c #582F1D",
"M  c #73311F",
"N  c #422D2C",
"B  c #482620",
"V  c #542622",
"C  c #4E3422",
"Z  c #483529",
"A  c #5C3C27",
"S  c #593B27",
"D  c #493634",
"F  c #693B26",
"G  c #7F3D2B",
"H  c #574436",
"J  c #65442E",
"K  c #794C2E",
"L  c #6F4A30",
"P  c #614C3C",
"I  c #6A4735",
"U  c #7B543C",
"Y  c #001E49",
"T  c #474646",
"R  c gray31",
"E  c #574443",
"W  c #545453",
"Q  c gray36",
"!  c #634F4B",
"~  c #755643",
"^  c #645D5B",
"/  c #6C5B5A",
"(  c #656464",
")  c #6B6261",
"_  c #6B6B6B",
"`  c #6F6867",
"'  c #746D6C",
"]  c #737373",
"[  c #7A7A7A",
"{  c #797372",
"}  c #872300",
"|  c #863B27",
" . c #8F510F",
".. c #85522E",
"X. c #9A4C34",
"o. c #875B3E",
"O. c #8A593B",
"+. c #99593C",
"@. c #AB5E3D",
"#. c #8E5E41",
"$. c #AB5F44",
"%. c #A75B42",
"&. c #83644E",
"*. c #8E6448",
"=. c #946443",
"-. c #996645",
";. c #9B6946",
":. c #9B6D4B",
">. c #8B6A53",
",. c #AA6141",
"<. c #A76D46",
"1. c #B66E4B",
"2. c #B56B49",
"3. c #A7734D",
"4. c #AA734D",
"5. c #BA754D",
"6. c #A36B52",
"7. c #B27750",
"8. c #BB7551",
"9. c #B47A53",
"0. c #BA7D55",
"q. c #8B7262",
"w. c #847574",
"e. c #A67F64",
"r. c #BB8057",
"t. c #BD8159",
"y. c #AA8165",
"u. c #B58D6F",
"i. c #BE9375",
"p. c #C7814D",
"a. c #C5845A",
"s. c #CA885D",
"d. c #CE8C60",
"f. c #CE8E6C",
"g. c #C68263",
"h. c #D28E61",
"j. c #D49163",
"k. c #DA9567",
"l. c #CB9C7B",
"z. c #CB9676",
"x. c #D29474",
"c. c #D29E7A",
"v. c #D59A76",
"b. c #E19A6A",
"n. c #D5A17E",
"m. c #DCA17B",
"M. c #E4A57D",
"N. c #EBA87C",
"B. c #697780",
"V. c #828181",
"C. c #8B8B8B",
"Z. c #959494",
"A. c #9B9B9A",
"S. c #A4A4A4",
"D. c #ADACAC",
"F. c #B3B3B3",
"G. c #BCBCBC",
"H. c #B4B9BB",
"J. c #D5A381",
"K. c #DEAA86",
"L. c #E0AB87",
"P. c #E8AD85",
"I. c #F0AF87",
"U. c #EAB38D",
"Y. c #F2B58E",
"T. c #EFB790",
"R. c #F4BA93",
"E. c #F9BD94",
"W. c #FDC39A",
"Q. c #FFC99F",
"!. c #FFCDA2",
"~. c #FFD2A7",
"^. c #C3C3C3",
"/. c #C8C8C8",
"(. c #C8C6C6",
"). c #D0D0D0",
"_. c #DDDDDE",
"`. c #E2CDC3",
"'. c #E4E4E4",
"]. c gray92",
"[. c #F1E6E2",
"{. c #FDFDFD",
"}. c #F7F4F2",
/* pixels */
"                  . .       . .                     ",
"                . X - O . O : - .                   ",
"              . + + - + O > > > - . .               ",
"            . . + - ; - : - + $ : - - . .           ",
"          . . + $ > : : > - O $ > : : - - O         ",
"        . - O $ - - - - O O - - - > : : e $ .       ",
"      . O - - > > : + O O + + + - : - ; - O .       ",
"    + + O - - > > ; ; & $ - - + + : O + + + +       ",
"  . $ - - - O + + + o . + p - $ O > > - - - > .     ",
"  . O - O + O - O ; Z Z u = - - - : - $ O - : > .   ",
"  + + - $ O - ; > . K.Q.y.. u : - : ; & > $ $ > .   ",
"  + + $ - O O ; : . U.Q.R.R.z.. s e . . . $ > > .   ",
"  . . - - - - w ; . U.!.Q.W.W.l.. . J.U.>.. w .     ",
"  . . - - ; o . w . >.>.L.!.Q.W.J.J.W.~.e.. y .     ",
"  . . $ - . S =.. . ..' q.3.J.~.!.!.W.L.U . w .     ",
"    . + w . L d.o.> p.`./.B.! l.P.E.Q.6.X > $       ",
"      . & . L j.j.Z  .[.{._.Y b j.!.K.P . w         ",
"        % . A 0.9.a . H.}.(.i C 0.L.U @ .           ",
"          . . . . q J . v.v.. ~ H . 0.L             ",
"              . 8 X.a.a.Y.i.&.!.R.a .               ",
"            X . r a.<.X.s.-.>.!.R.a .               ",
"      . . 1 < m a.d.a.a.1.M = P I 0.Y.&..           ",
"    . < 3 6 < F h.d.h.j.h.a.r.9.9.j.!.>.. 8         ",
"    . < h z 6 k O.h.1.$.,.@.@.1.j.,.g.I , 0 .       ",
"    . < 6 j c h 4 O.8.1.f.m.v.x.8.x.G 3 z 0 .       ",
"    , 3 2 2 j j l < =.s.M.E.!.Y.$.!.~ # l 2         ",
"  . 6 5 1 1 X . , v . O.0.N.!.Y.%.J.F , 8           ",
"  . 5 2 1 # . @ 1 # n . O.v.U.c.| . 3 . .           ",
"  . @ < 1 .     . . @ k g # , < 5 t 1 b A C         ",
". v n c 7 .         . N D B c c z < . 9.k.-..       ",
". 0.h.o..           . A.D.' 3 x c 9 . 9.k.-..       ",
". t.k.=.          - . S.(.S.Z.D.Z.D.H.^ <.h.-..     ",
". t.j.K .         . 3 E Z.S.D.(.H.D.w.* 4.b.3..     ",
". t.N.L.L.u.    . < 7 < E ^ ( { w./ g , S 7.d.-..   ",
"+ 0.E.~.Y.f.=.. : l B < . . . . < g V B . ;.h.5.=.. ",
". a.N.W.x.} :.. . X # ` C.V.^ @ 1 l 4 < . U +.$.s.. ",
". <.<.m.I.6.. s ' ] _ F.G.A.[ . f a ^ ) D . F 8.;.. ",
"  . . ..m.l.. W ^.^.^.F.C.Q d e Q ] A.S._ . #.4.. % ",
"      o . . d [ D.D.G.V.S.A.. f _ A.A.A.[ T . . 8   ",
"            ( H._ ( D.G.D.] + _ A.A.A._ C.[ .       ",
"            R S.H.F.H.^.C..   d ( ( Z.A.S.] .       ",
"          Q A.A.A.{ _ [ R .   T Z.A.A.A.A.[ .       ",
"          . Z.].G.S.D.( .       W W f _.D..         ",
"          . [ {.[ G.).[         . . . }.H.          ",
"          V./.S.. [ C.Q         : p . ].S.          ",
"        . F.{.. : . .             - . ].].[         ",
"      . _ ^.^.. -                 O . G.'.).V.      ",
"      . /.'.. p                   . - . . D.'._     ",
"      . /._.. p                   . - : f . F.]..   ",
"    p . (._.. p                                     "
};
