/* XPM */
static char *ddab436174bf41a6d1bcbd3abf79d4edj9ACvXjySQzTjn0Z[] = {
/* columns rows colors chars-per-pixel */
"50 50 144 2 ",
"   c None",
".  c #000000",
"X  c #0C0D0A",
"o  c #14111A",
"O  c #19161D",
"+  c #1B1624",
"@  c #1D1A22",
"#  c #231D2D",
"$  c #251F30",
"%  c #26232C",
"&  c #272131",
"*  c #292433",
"=  c #2F2C36",
"-  c #2E273B",
";  c #2F283C",
":  c #312C3B",
">  c #362D44",
",  c #382F47",
"<  c #382F48",
"1  c #373241",
"2  c #3A3444",
"3  c #3D3846",
"4  c #3B334A",
"5  c #3F3B4A",
"6  c #423B4F",
"7  c #443B53",
"8  c #473D58",
"9  c #493E5B",
"0  c #474056",
"q  c #494356",
"w  c #4D4956",
"e  c #4C435D",
"r  c #4E485A",
"t  c #524C5E",
"y  c #4E4462",
"u  c #524766",
"i  c #534966",
"p  c #554A69",
"a  c #594E6C",
"s  c #565063",
"d  c #585266",
"f  c #5C536C",
"g  c #5F596D",
"h  c #5E5471",
"j  c #615B6F",
"k  c #605673",
"l  c #635B74",
"z  c #665C79",
"x  c #685F79",
"c  c #696276",
"v  c #6B637B",
"b  c #6F687F",
"n  c #71697F",
"m  c #6E6581",
"M  c #716784",
"N  c #736B84",
"B  c #766E88",
"V  c #786F8A",
"C  c #777285",
"Z  c #7C7886",
"A  c #777088",
"S  c #7A728B",
"D  c #7F788E",
"F  c #7F7691",
"G  c #817B8F",
"H  c #817694",
"J  c #837A94",
"K  c #857A99",
"L  c #897D9D",
"P  c #8A7FA0",
"I  c #868092",
"U  c #898396",
"Y  c #8D8A94",
"T  c #8B829D",
"R  c #8F8B9A",
"E  c #918E97",
"W  c #918D9B",
"Q  c #96939D",
"!  c #8C81A0",
"~  c #8D83A0",
"^  c #8E84A1",
"/  c #8F85A2",
"(  c #8F86A3",
")  c #8D81A5",
"_  c #8E82A6",
"`  c #8D83A1",
"'  c #9086A4",
"]  c #9085A6",
"[  c #9186A7",
"{  c #9187A7",
"}  c #9189A1",
"|  c #9289A5",
" . c #9288A6",
".. c #9289A6",
"X. c #9389A7",
"o. c #938AA7",
"O. c #9489A7",
"+. c #948AA7",
"@. c #948AA8",
"#. c #948BA8",
"$. c #958BA8",
"%. c #948AA9",
"&. c #958BA9",
"*. c #958BAA",
"=. c #958CA9",
"-. c #968CAA",
";. c #978CAB",
":. c #958BA9",
">. c #988DAC",
",. c #988EAC",
"<. c #988EAD",
"1. c #998FAD",
"2. c #998FAE",
"3. c #9790A6",
"4. c #9794A0",
"5. c #9996A1",
"6. c #9E9CA3",
"7. c #9A90AF",
"8. c #9E96AE",
"9. c #9B90B0",
"0. c #9C91B1",
"q. c #9E93B3",
"w. c #9E93B4",
"e. c #A29CAE",
"r. c #A29DAE",
"t. c #A39DAE",
"y. c #A49FAF",
"u. c #A098B0",
"i. c #A3A1A7",
"p. c #A6A4AB",
"a. c #A8A6AB",
"s. c #A9A8AD",
"d. c #AAA6B1",
"f. c #AAA7B1",
"g. c #ABA7B2",
"h. c #AFAEB1",
"j. c #B6B5B7",
"k. c #B4B3B5",
"l. c #BABAB8",
"z. c #BABBB9",
"x. c #BDBEBA",
"c. c #BBBBBA",
"v. c #BFC0BD",
"b. c #BFC0BD",
/* pixels */
"                                                                                                    ",
"                                                                                                    ",
"                                                                                                    ",
"                                                                                                    ",
"                                                                                                    ",
"                                                                                                    ",
"                                                                                                    ",
"                                                                                                    ",
"                                . . . . . . .                                                       ",
"                          . . t S A A B V A S s .                                                   ",
"                        : 3 @ v u.2.,.7.7.,.q.N O                                                   ",
"                      . l ,.| +.X.X.X.X.X.X.X.%.( % .                                               ",
"                    : c J ,.+.%.%.%.%.%.+.%.X.%.o.% .                                               ",
"                  . 2 ,.,.X.%.%.%.%.%.+.%.%.X.+.} * .                                               ",
"                  . % %.%.+.j.f.) ]  .] %.=.7.K N k 7 .                                             ",
"                  q g H ~ =.f.f.e.e.y.y.W K T A z z i 2                                             ",
"                . M P f H >.P t.x.l.l.b.Y x n x k k k k # .                                         ",
"                . x L H B M n J u.u.3.G b k z k k k k h f 8 . . .                                   ",
"                6 M L K V v v V T L H x k h k k k k k k k a t t q                                   ",
"            . 6 L L K K K K L V g j l k k k k k k f k k 6 v 7.2.L . . .                             ",
"            . 2 L K K K K K K H V H N e t i k k k k k k 6 z -.+.( A H V . . .                       ",
"            * t L K K K K K K K L K A 7 q e k f f k k k s M -.+.%.,.,.+.6 3 3                       ",
"          . N L H K K K K K K K K v k u p u 8 q q k i 4 T -.+.+.%.+.+.+.=.,.+.O .                   ",
"          . N L K K K K K K K K K b k u u u e u e u z D ] %.+.+.+.%.+.%.+.+.+.S j .                 ",
"          o N L H K K K K K K H J v k u u u u u p 6 N u. . .%.+.%.+.%.+.%.+.] q.D .                 ",
"      . r K H L K K K K K K K H l k k u u u u u p v H $. .+.+.%.+.%.+.%.+.%.%.S z y # .             ",
"      . r L K K K K K K K K H n l a a a p u u u p v J ,. .%.%.+.%.+.+.+.%.' J v f p & .             ",
"      . e L K K K H K K K H l k k r e z p u u u a v J ,.+.+.+.%.+.%.+.+.=.J v i y p # .             ",
"    . v n j j v K L K K V x l k k r e l p u u u a v J 1.-.-.%.%.%.+.%.+.D x p p u u y 7 .           ",
"    . N V l l v V G H K B j k k k i u f i u u u p v H T L T +.%.%.%.' K x h y u u u p 9 .           ",
"    . N S N S n a s j L B j k k k k f 7 u u u u p n n b v S ,.%.,.,.H x u u u u u u p 8 .           ",
"    X v W h.h.i.v b v x n B k k k k k u 8 7 8 7 q N A A S V S D S S x a p u u u u u p 8 .           ",
"    X v W k.k.a.U U I j b A v h h f a y 8 5 7 4 8 B S S S A N N N N g 9 p u u u u u p 9 #           ",
"    . N S A m T x.x.j.S g e S b 7 4 4 4 y p u 8 7 V A M N N A A A S f 4 u u u u p u u u p ; .       ",
"    . N S A A D 4.} 4.p.i.6.N f y y 9 y y u p 8 7 N R s.p.5.V S S S d < u u u u u u u u p ; .       ",
"    . v V A S S N m S j.l.k.c i p p u p u u u 9 0 m 4.l.j.p.B A S S h 7 u u u u u u u u p : .       ",
"      . r J A A S S S S C S j d u u u u u u p 7 4 A S S S A N N N N V N 5 9 p u u u u u p $ .       ",
"        2 d N S S A A A A A j d u u u u u i 8 i z A S A V I 6.6.6.6.U N 7 9 p u u u u u p 7 > X     ",
"          . c S A S A S S A g d u u u u i u > z D A S S N W b.z.c.x.4.m 7 8 u u u u u u u p y .     ",
"            O w S p.k.B v g p i u u u u i y 2 l S A A S A S J D D J S B 4 7 p u i u u u u u y .     ",
"              : f R p.4.Z s i u u u u u p u , z S S S A S A V V V V A A f i e i u p u u u p 9 .     ",
"                . i J b.Q r p i u u u u u y , z F S S S S A A A A A S A D k > y u u u u u p y .     ",
"                  = w Y A d p u u u u i p y + = 3 2 2 2 : s F S S F S A S k < i p u u u a 4 +       ",
"                    o z g d i y u u y 8 9 7 . . . . . . . 3 b v c v N A S j 4 y u u u y 9 * .       ",
"                      . 4 p i i p p 9 . . .                 . . . . l J S l 4 i u u p 9 .           ",
"                        * > - ; - : -                               5 q q 4 # y p p 4 *             ",
"                          . . . . . .                               . . . . . 9 y y + .             ",
"                                                                              . . .                 ",
"                                                                                                    ",
"                                                                                                    "
};
