/* XPM */
static char *_21c6e56dc094dfa8d9652eec3c5fe4dbGG1mIrVfNTmrx0Z[] = {
/* columns rows colors chars-per-pixel */
"50 50 35 1 ",
"  c #5B311E",
". c #5D3523",
"X c #5E3925",
"o c #5E3728",
"O c #5E3B29",
"+ c #623624",
"@ c #633A26",
"# c #693B26",
"$ c #613528",
"% c #653C2A",
"& c #6A3E2B",
"* c #703E2D",
"= c #663F30",
"- c #6D3F31",
"; c #713F30",
": c #66412D",
"> c #6C412E",
", c #72432E",
"< c #78462F",
"1 c #75492E",
"2 c #674330",
"3 c #6D4431",
"4 c #6E4934",
"5 c #734532",
"6 c #794634",
"7 c #754935",
"8 c #794A35",
"9 c #764639",
"0 c #7A4638",
"q c #754B39",
"w c #7A4C3A",
"e c #77513C",
"r c #7A503B",
"t c #80513E",
"y c #835442",
/* pixels */
"%>3%&>503%Oo&->@oO&63%&@:%5=-&:,83%%O3>%oo@#5>%:+:",
"@%> 735>#q4q7+%:qq%.3%q77:%%.36,>&3q37@+3qq2X>#588",
"3>&>%>&3&w66&>q556q:@3w6w&%3:%&;3&w7q&5q5>74:@5615",
"5qrq%>>%.&75@3665.%3O3&,%3wr8%%6&+>7&+7965o:3%&6,#",
"65555@@%4.583@5,#>887@&5%5565,%.%q+#85$35&@587X>3&",
"&,>:#58,q5+$:%@&Oq7367%@%%,*>&7q733o:&%%o#8w368o$%",
"++%>%#7>,1:>%34::336&3>37X$%%.&7,57%>%55:%537#5377",
"q3%%5@:5>@44q687+%&5%#77872:=7+&,,.q4888wO%&,:#9,8",
"%3588>%2+705>555>:Xo%:759%><78&%%@78,,3353%Oo#>7>5",
"=37#73@@3@&33@@#>r735%#53:4>>15%O3&>,>@@%3rq>>#%7,",
"3+33>#583:@$+&32&>887>oXo>O335.>q>%%#O&2>&&088>X.O",
"5>.%>%5w7833793q>+%,55>O87>X%%>8876%3q7773+#5-7:>5",
"87%33&755,>:t6&&q:@%:>58,83%5323<,55>w,>&7%@%%5365",
">+775+>>,55##563&>:::+#6*,+786.>6&,>@#755>::>%@%73",
"%&857>#&>>@%+2%#&>7753%:5%:875>@%33@%@%:@X:8w6&:#&",
"&>51,,>:.:333Xo3&>5*5qOO.%>7,363%o%343oO>>53&5q%OX",
"q@%>3>:3>6w6>8,ww&#3>>%578%:%>>>555w5>q5wr&+>37%>,",
"75@oo@&&755&>q6&73@3%.576w,X%+oO*65,>>75>5>%3&.-86",
"&>7wq4&%5&-$@37-@>>##>>5>>@7w77,$55-X@>9>:%>#@53>>",
"2@36173%%3%@2O@%%qr57>&58&@q571,%o%O%%%O%@8r55>&,6",
"O3>>,,3:%#@%4%:>:>>,57% %#3%>3&53%%O43%%3%>>773%#%",
"33%@&>>%w76q5&7w5+>w>&,wq43:%#&-%q6577%qw5@&5>3357",
">>qqo +&5&57&,617&#&..76q&&83O%o#5553>&658>@&@ 788",
"@7735>4:+35&%>>75:w34>&5>&q58>%q=.&73%73,5&e453%5>",
">755#587>@>>@5,>%38657%%:>665#785%O33.6>3@3866qO2=",
"%33%&>,73%%@>%%#o%#>5&%%&>>3%>&,67:+@:%>o%++>>%%+%",
"O%@@75,>@705qXO:q73@3@783%@%o35;5%>q78X%2783%2%6w7",
"33%%@:,5376w:3q5>qq%o386w>&3%&;53>w57%>q5>77O%=688",
",wr8%33@.37&+>86>.&3%3>*@389q#&>%o>7&+57,,.33&55&%",
"8,*65@o37+-57$;,%&777+&5:75685&+23@355+36&O7w&+#3&",
"#,7#>39356#%%3%#@w7567%+%%35%&>7567.&::#@&w51w7%@%",
"Oo=%+&7;6>#:3:4::>,6&>337%@%%%%8,53::>432%*<,&3>57",
"8%:&qo#,:@758881o%&7&#73q6>:%,@&5%#758585@%&7%@7,7",
">%787>:3+w7,7,,73@%@.36-6%238w:%3+76,56>7>%oX@3655",
"%4>#65O@>>:&3%+%>w7>3%&9>:53:15O$=:&>7%.#,wq33%&33",
"3%>1,+2w3%%%+%>>>37wq&@@#%%;55+3w7@%.+%3>:3778%@#%",
"6%.%=%8878&375q74.&&3q%%q82%@%%875w>576733.3&5w%&3",
"5723337,65&5w5>>6#%%2338363%>>37185+385&#q%%>#>355",
">@3e-@>5&>3%@7,,3%&3%o35;>@3y>X>5,>7#%67,>%%3&+395",
"&%816>o&33@%%>##O2wq73%%>%-8755X#%3%@%&&%.3w853O#3",
"%>75;7q%X%5*5%.32>,#55&@o3>,7>73%.%833O@>:>8&66%@@",
"q&@:33@&>688>74wq#%7#7&>,5>%%3>@738w54w3r8%@5&3:55",
"85.oXo%685,:>q6#6>@--.>81q4.#+.:373>&>75&67X3&.381",
"3%rq7q>@&&>@o%56#&3%$33,,:@rq993+5>>@%&7,#&3+#=3>:",
"%@76663:3%@O:O%%%3t7,;&37:@7670>%%%%O:%%%@5t763:,1",
"%5+55&3%O%@33:%:%7;&81%o#%3.5&&,%%%%33@@>O7*&66@#%",
"33&%%3%%qq5q,>7w3%&q&5>88>3&@&&::q87q5:ww8@%q-3477",
"3:q3%.@:,,55>%7,63@%@.788>%e3@@%%5&51>#366&:%..986",
"%q58&>q&O#5&%,56&287,,:,3%867=&7&X=5&%3>7&:8,55%7>",
"3q55&3w5O%5&%>&5&3855,%,:&569&381@&5&%55,%>w185@>&"
};
